name ./resultDataOpenSim/trcMotMarkerGrf/sub10/grf-12-01.mot
datacolumns 19
datarows 22
range 1.39200000 1.47600000
endheader

                time	     ground_force_vx	     ground_force_vy	     ground_force_vz	     ground_force_px	     ground_force_py	     ground_force_pz	   l_ground_force_vx	   l_ground_force_vy	   l_ground_force_vz	   l_ground_force_px	   l_ground_force_py	   l_ground_force_pz	     ground_torque_x	     ground_torque_y	     ground_torque_z	   l_ground_torque_x	   l_ground_torque_y	   l_ground_torque_z	
          1.39200000	        -42.10975762	        522.74266319	        -47.12322263	          0.74731225	          0.00000000	          0.06127361	          0.00000000	          0.00000000	          0.00000000	          0.00000000	          0.00000000	          0.00000000	          0.00000000	         -0.04813766	          0.00000000	          0.00000000	          0.00000000	          0.00000000	
          1.39600000	        -40.77727113	        512.64053932	        -46.35760216	          0.74909965	          0.00000000	          0.06139997	          0.00000000	          0.00000000	          0.00000000	          0.00000000	          0.00000000	          0.00000000	          0.00000000	          0.11071293	          0.00000000	          0.00000000	          0.00000000	          0.00000000	
          1.40000000	        -39.56872340	        503.09072663	        -45.91547869	          0.75100449	          0.00000000	          0.06152170	          0.00000000	          0.00000000	          0.00000000	          0.00000000	          0.00000000	          0.00000000	          0.00000000	          0.29062899	          0.00000000	          0.00000000	          0.00000000	          0.00000000	
          1.40400000	        -38.13642518	        494.09639256	        -45.66974633	          0.75295433	          0.00000000	          0.06163866	          0.00000000	          0.00000000	          0.00000000	          0.00000000	          0.00000000	          0.00000000	          0.00000000	          0.48181532	          0.00000000	          0.00000000	          0.00000000	          0.00000000	
          1.40800000	        -36.28413806	        485.69781902	        -45.48136144	          0.75487313	          0.00000000	          0.06174547	          0.00000000	          0.00000000	          0.00000000	          0.00000000	          0.00000000	          0.00000000	          0.00000000	          0.67235167	          0.00000000	          0.00000000	          0.00000000	          0.00000000	
          1.41200000	        -33.99026195	        477.94536388	        -45.23348652	          0.75674870	          0.00000000	          0.06183293	          0.00000000	          0.00000000	          0.00000000	          0.00000000	          0.00000000	          0.00000000	          0.00000000	          0.84951800	          0.00000000	          0.00000000	          0.00000000	          0.00000000	
          1.41600000	        -31.38382280	        470.87170133	        -44.83860222	          0.75856031	          0.00000000	          0.06188922	          0.00000000	          0.00000000	          0.00000000	          0.00000000	          0.00000000	          0.00000000	          0.00000000	          1.00268474	          0.00000000	          0.00000000	          0.00000000	          0.00000000	
          1.42000000	        -28.69402798	        464.48674878	        -44.23109334	          0.76029790	          0.00000000	          0.06190777	          0.00000000	          0.00000000	          0.00000000	          0.00000000	          0.00000000	          0.00000000	          0.00000000	          1.12666837	          0.00000000	          0.00000000	          0.00000000	          0.00000000	
          1.42400000	        -26.17673098	        458.79001159	        -43.36372158	          0.76199193	          0.00000000	          0.06188284	          0.00000000	          0.00000000	          0.00000000	          0.00000000	          0.00000000	          0.00000000	          0.00000000	          1.22341223	          0.00000000	          0.00000000	          0.00000000	          0.00000000	
          1.42800000	        -24.04161161	        453.77648771	        -42.21438278	          0.76365867	          0.00000000	          0.06180622	          0.00000000	          0.00000000	          0.00000000	          0.00000000	          0.00000000	          0.00000000	          0.00000000	          1.30058019	          0.00000000	          0.00000000	          0.00000000	          0.00000000	
          1.43200000	        -22.39924777	        449.42164582	        -40.80059629	          0.76532711	          0.00000000	          0.06167976	          0.00000000	          0.00000000	          0.00000000	          0.00000000	          0.00000000	          0.00000000	          0.00000000	          1.36766396	          0.00000000	          0.00000000	          0.00000000	          0.00000000	
          1.43600000	        -21.22864536	        445.66886868	        -39.18938460	          0.76701668	          0.00000000	          0.06151383	          0.00000000	          0.00000000	          0.00000000	          0.00000000	          0.00000000	          0.00000000	          0.00000000	          1.43191926	          0.00000000	          0.00000000	          0.00000000	          0.00000000	
          1.44000000	        -20.37556474	        442.44744730	        -37.49102563	          0.76870317	          0.00000000	          0.06132265	          0.00000000	          0.00000000	          0.00000000	          0.00000000	          0.00000000	          0.00000000	          0.00000000	          1.49651463	          0.00000000	          0.00000000	          0.00000000	          0.00000000	
          1.44400000	        -19.59661841	        439.70976596	        -35.83542154	          0.77035879	          0.00000000	          0.06111970	          0.00000000	          0.00000000	          0.00000000	          0.00000000	          0.00000000	          0.00000000	          0.00000000	          1.56165820	          0.00000000	          0.00000000	          0.00000000	          0.00000000	
          1.44800000	        -18.64466896	        437.44500310	        -34.34032123	          0.77197071	          0.00000000	          0.06091422	          0.00000000	          0.00000000	          0.00000000	          0.00000000	          0.00000000	          0.00000000	          0.00000000	          1.62737323	          0.00000000	          0.00000000	          0.00000000	          0.00000000	
          1.45200000	        -17.35250926	        435.65982008	        -33.08934534	          0.77353316	          0.00000000	          0.06071375	          0.00000000	          0.00000000	          0.00000000	          0.00000000	          0.00000000	          0.00000000	          0.00000000	          1.69559310	          0.00000000	          0.00000000	          0.00000000	          0.00000000	
          1.45600000	        -15.67200885	        434.35666091	        -32.12923912	          0.77504470	          0.00000000	          0.06053001	          0.00000000	          0.00000000	          0.00000000	          0.00000000	          0.00000000	          0.00000000	          0.00000000	          1.77003549	          0.00000000	          0.00000000	          0.00000000	          0.00000000	
          1.46000000	        -13.67053335	        433.52886590	        -31.48049531	          0.77649488	          0.00000000	          0.06037571	          0.00000000	          0.00000000	          0.00000000	          0.00000000	          0.00000000	          0.00000000	          0.00000000	          1.85416624	          0.00000000	          0.00000000	          0.00000000	          0.00000000	
          1.46400000	        -11.50375373	        433.16655384	        -31.14867582	          0.77787263	          0.00000000	          0.06025676	          0.00000000	          0.00000000	          0.00000000	          0.00000000	          0.00000000	          0.00000000	          0.00000000	          1.94900094	          0.00000000	          0.00000000	          0.00000000	          0.00000000	
          1.46800000	         -9.37233193	        433.25669986	        -31.12379359	          0.77920148	          0.00000000	          0.06017011	          0.00000000	          0.00000000	          0.00000000	          0.00000000	          0.00000000	          0.00000000	          0.00000000	          2.05244682	          0.00000000	          0.00000000	          0.00000000	          0.00000000	
          1.47200000	         -7.46407695	        433.77602969	        -31.37038731	          0.78052466	          0.00000000	          0.06010345	          0.00000000	          0.00000000	          0.00000000	          0.00000000	          0.00000000	          0.00000000	          0.00000000	          2.16053149	          0.00000000	          0.00000000	          0.00000000	          0.00000000	
          1.47600000	         -5.89650136	        434.68632889	        -31.82223578	          0.78186661	          0.00000000	          0.06004191	          0.00000000	          0.00000000	          0.00000000	          0.00000000	          0.00000000	          0.00000000	          0.00000000	          2.26940315	          0.00000000	          0.00000000	          0.00000000	          0.00000000	
